<svg width="125" height="25" viewBox="0 0 125 25" fill="none" xmlns="http://www.w3.org/2000/svg">
<g clip-path="url(#clip0_405_18)">
<path fill-rule="evenodd" clip-rule="evenodd" d="M0.693441 6.3015L12.7634 14.961C12.8763 15.0415 13.029 15.0415 13.1413 14.9604L20.1046 9.94039C20.3157 9.78816 20.6124 9.93594 20.6124 10.1915V12.6954V12.7787V22.1876C20.6124 22.3599 20.7554 22.4999 20.9313 22.4999H22.847C23.0234 22.4999 23.1658 22.3599 23.1658 22.156V5.23594C23.1658 5.01205 22.8697 4.86483 22.6586 5.01594L13.1413 11.8493C13.029 11.9298 12.8763 11.9298 12.764 11.8493L0.316113 2.9115C0.234405 2.85261 0.185608 2.75928 0.185608 2.65983V0.312606C0.185608 0.0570508 0.482932 -0.0901715 0.693441 0.0609396L12.764 8.72816C12.8763 8.80871 13.029 8.80871 13.1413 8.72816L23.1658 1.52983L25.2119 0.0609396C25.423 -0.0901715 25.7191 0.0570508 25.7191 0.312606V2.7865V22.4688V24.6876C25.7191 24.8599 25.5767 24.9999 25.4003 24.9999H23.1658H20.6124H18.3779C18.2021 24.9999 18.0591 24.8599 18.0591 24.6876V22.4999V15.1542C18.0591 14.8981 17.7624 14.751 17.5513 14.9026L13.1413 18.082C13.029 18.1631 12.8763 18.1631 12.7634 18.0826L3.2468 11.2493C3.03629 11.0976 2.73897 11.2448 2.73897 11.5009V22.1876C2.73897 22.3599 2.88195 22.4999 3.05784 22.4999H4.97343C5.1499 22.4999 5.29232 22.3599 5.29232 22.1876V16.4565C5.29232 16.2004 5.58964 16.0537 5.80015 16.2049L7.71574 17.5804C7.79801 17.6387 7.84567 17.7326 7.84567 17.832V22.4999V24.6876C7.84567 24.8599 7.70325 24.9999 7.52678 24.9999H5.29232H2.73897H0.504493C0.328595 24.9999 0.185608 24.8599 0.185608 24.6876V22.4999V6.55316C0.185608 6.29761 0.482364 6.15039 0.693441 6.3015Z" fill="#4A62E8"/>
<path fill-rule="evenodd" clip-rule="evenodd" d="M46.1291 7.14294L42.5062 14.2604L38.8672 7.14294H36.6622V17.8572H38.4108V9.85189L41.8917 16.74H43.1047L46.5861 9.85189L46.6018 17.8572H48.3187V7.14294H46.1291Z" fill="#333333"/>
<path fill-rule="evenodd" clip-rule="evenodd" d="M60.397 7.14294L57.2788 12.3622L54.0969 7.14294H52.2037L56.3561 14.3521V17.8572H58.2176V14.2907L62.3061 7.14294H60.397Z" fill="#333333"/>
<path fill-rule="evenodd" clip-rule="evenodd" d="M75.6589 7.14294L72.0361 14.2604L68.3976 7.14294H66.192V17.8572H67.9407V9.85189L71.4219 16.74H72.6343L76.1158 9.85189L76.1316 17.8572H77.8485V7.14294H75.6589Z" fill="#333333"/>
<path fill-rule="evenodd" clip-rule="evenodd" d="M88.3561 16.2534C86.2039 16.2534 84.3973 14.5886 84.3973 12.4849C84.3973 10.3812 86.1881 8.74716 88.3561 8.74716C90.508 8.74716 92.2674 10.3812 92.2674 12.4849C92.2674 14.5886 90.508 16.2534 88.3561 16.2534ZM88.3403 7.14294C85.0572 7.14294 82.5121 9.44301 82.5121 12.4849C82.5121 15.5117 85.0572 17.8572 88.3403 17.8572C91.6234 17.8572 94.1687 15.5117 94.1687 12.4849C94.1687 9.45819 91.6234 7.14294 88.3403 7.14294Z" fill="#333333"/>
<path fill-rule="evenodd" clip-rule="evenodd" d="M98.519 7.14294L101.955 15.8521L105.422 7.14294H107.379L102.878 17.8572H100.937L96.4991 7.14294H98.519Z" fill="#333333"/>
<path fill-rule="evenodd" clip-rule="evenodd" d="M117.469 11.6583V13.2805H112.278V16.2347H118.258V17.8572H110.487V7.14294H118.076V8.76528H112.278V11.6583H117.469Z" fill="#333333"/>
<path fill-rule="evenodd" clip-rule="evenodd" d="M120.929 9.43872H120.703V7.38216H120.039V7.14294H121.593V7.38216H120.929V9.43872Z" fill="#333333"/>
<path fill-rule="evenodd" clip-rule="evenodd" d="M123.54 8.80911H123.526L122.639 7.58242V9.43872H122.371V7.14294H122.649L123.536 8.39593L124.424 7.14294H124.702V9.43872H124.427V7.57931L123.54 8.80911Z" fill="#333333"/>
</g>
<defs>
<clipPath id="clip0_405_18">
<rect width="125" height="25" fill="white"/>
</clipPath>
</defs>
</svg>
