<svg width="125" height="18" viewBox="0 0 125 18" fill="none" xmlns="http://www.w3.org/2000/svg">
<path d="M8.89946 13.7316H6.29529L4.37047 9.88488H3.39674V12.2629H4.46105V13.7549H0V12.2629H1.17754V6.4345H0V4.94244H5.32156C6.97464 4.94244 7.88043 6.06149 7.88043 7.39035C7.88043 8.39283 7.40489 9.11554 6.40851 9.58181L7.78986 12.2395H8.89946V13.7316ZM4.27989 8.46277C5.27627 8.46277 5.57065 7.90325 5.57065 7.43698C5.57065 7.06396 5.36685 6.4345 4.52899 6.4345H3.39674V8.46277H4.27989Z" fill="#B2292E"/>
<path d="M11.798 12.2395H12.7944V6.4345H11.798V4.94244H19.2935V7.71674H17.6631V6.4345H15.0363V8.46277H17.1649V9.95482H15.0363V12.2629H17.6857V10.9573H19.3162V13.7549H11.798V12.2395Z" fill="#B2292E"/>
<path d="M22.6902 12.2395H23.9809V6.4345H22.6902V4.94244H27.1512C28.6911 4.94244 29.7554 5.24552 30.6386 6.13143C31.4991 7.01734 31.8614 8.15969 31.8614 9.34868C31.8614 11.6334 30.5027 13.7316 27.7853 13.7316H22.7128V12.2395H22.6902ZM27.0607 12.2395C28.759 12.2395 29.5516 11.1205 29.5516 9.37199C29.5516 7.4836 28.6458 6.4345 26.9927 6.4345H26.2228V12.2395H27.0607Z" fill="#B2292E"/>
<path d="M40.308 6.4345H39.2889V4.94244H43.5235V6.4345H42.5498L43.9764 10.8407H43.9991L45.4257 6.4345H44.4746V4.94244H48.0752V6.4345H47.0788L44.6105 13.8015H42.8895L40.308 6.4345Z" fill="#143642"/>
<path d="M51.019 12.2395H52.0154V6.4345H51.019V4.94244H58.5145V7.71674H56.8841V6.4345H54.2346V8.46277H56.3632V9.95482H54.2346V12.2629H56.8841V10.9573H58.5145V13.7549H51.019V12.2395Z" fill="#143642"/>
<path d="M61.7301 12.2395H62.8623V6.4345H61.7301V4.94244H65.308L68.433 10.4211H68.4556V6.4345H67.3687V4.94244H71.1957V6.4345H69.9955V13.7316H68.0933L64.4248 7.27378H64.4022V12.2395H65.4665V13.7316H61.7301V12.2395Z" fill="#143642"/>
<path d="M82.0879 8.48608H80.5933V6.4345H79.3026V12.2395H80.5933V13.7316H75.8152V12.2395H77.106V6.4345H75.8152V8.48608H74.3433V4.94244H82.0879V8.48608Z" fill="#143642"/>
<path d="M85.145 4.94244H89.1078V6.4345H88.3605V10.8874C88.3605 11.75 88.6096 12.3328 89.4701 12.3328C90.1948 12.3328 90.6477 11.9598 90.6477 10.9573V6.4345H89.9457V4.94244H93.2292V6.4345H92.1649V11.3536C92.1649 13.4052 90.4212 13.8482 89.221 13.8482C87.5453 13.8482 86.1187 13.1954 86.1187 11.0506V6.4345H85.1223V4.94244H85.145Z" fill="#143642"/>
<path d="M105.186 13.7316H102.582L100.657 9.88488H99.683V12.2629H100.747V13.7549H96.2863V12.2629H97.4638V6.4345H96.2863V4.94244H101.608C103.261 4.94244 104.167 6.06149 104.167 7.39035C104.167 8.39283 103.691 9.11554 102.695 9.58181L104.076 12.2395H105.186V13.7316ZM100.566 8.46277C101.563 8.46277 101.857 7.90325 101.857 7.43698C101.857 7.06396 101.653 6.4345 100.815 6.4345H99.683V8.46277H100.566Z" fill="#143642"/>
<path d="M108.084 12.2395H109.081V6.4345H108.084V4.94244H115.602V7.71674H113.972V6.4345H111.322V8.46277H113.451V9.95482H111.322V12.2629H113.972V10.9573H115.602V13.7549H108.107V12.2395H108.084Z" fill="#143642"/>
<path d="M119.112 10.7475H120.562C120.539 11.7033 121.128 12.3328 121.875 12.3328C122.396 12.3328 122.826 11.9131 122.826 11.3769C122.826 9.76831 119.044 10.0014 119.044 7.22715C119.044 5.52527 120.29 4.82587 121.354 4.82587C122.011 4.82587 122.554 5.10563 122.917 5.64184H122.939V4.91912H124.366V7.57685H122.939C122.826 6.78419 122.351 6.2713 121.716 6.2713C121.218 6.2713 120.879 6.57437 120.879 6.99401C120.879 8.41613 124.819 8.08974 124.819 11.1904C124.819 13.2886 123.256 13.8015 122.351 13.8015C121.603 13.8015 121.014 13.5218 120.652 12.9389H120.63V13.685H119.18V10.7475H119.112Z" fill="#143642"/>
<path d="M35.7337 0.0233154H35.2355V16.9955H35.7337V0.0233154Z" fill="#143642"/>
</svg>
